<svg xmlns="http://www.w3.org/2000/svg" xmlns:xlink="http://www.w3.org/1999/xlink" preserveAspectRatio="xMidYMid meet" version="1.0" viewBox="-0.0 -1.6 565.0 677.4" zoomAndPan="magnify" style="fill: rgb(239, 165, 182);" original_string_length="5055">
  <g id="__id236_sxs3yg52tb">
    <path d="M 342.72 674.00 L 333.16 674.00 Q 325.05 673.03 316.90 672.96 Q 305.99 672.86 300.62 672.64 Q 288.52 672.13 278.55 672.74 C 270.36 673.24 261.79 672.74 253.44 673.39 C 248.51 673.77 243.62 673.77 238.68 674.00 L 238.19 674.00 Q 234.21 673.77 230.25 673.32 C 227.13 672.96 224.13 673.12 221.05 672.47 Q 219.09 672.06 217.22 671.74 Q 208.13 670.13 201.59 664.60 C 190.15 654.91 201.83 639.93 211.43 635.69 A 0.88 0.88 0.0 0 0 211.68 634.25 Q 209.61 632.27 207.89 630.09 Q 196.74 616.00 188.47 599.69 Q 187.00 596.80 185.60 594.42 Q 185.06 593.49 184.83 594.54 Q 181.36 610.50 177.80 625.52 Q 174.83 638.09 171.42 646.99 C 167.62 656.89 162.08 664.89 151.51 668.92 Q 133.65 675.74 112.46 671.49 Q 106.81 670.36 102.72 667.38 C 98.11 664.02 97.32 658.59 97.73 653.08 Q 98.05 648.69 99.56 645.55 Q 104.29 635.72 115.60 633.71 C 125.66 631.92 130.32 627.89 133.21 617.65 C 133.63 616.16 134.22 615.17 133.99 613.50 A 2.22 2.16 51.4 0 1 134.09 612.49 Q 134.84 610.25 134.92 607.94 Q 135.40 594.05 134.31 585.15 C 133.80 581.02 134.26 576.93 133.46 572.85 C 132.83 569.61 133.37 566.34 132.60 563.22 Q 131.87 560.29 131.98 557.27 C 132.07 554.81 131.04 552.67 131.02 550.24 Q 131.00 547.01 130.14 543.69 C 129.90 542.79 130.11 541.89 129.98 541.00 Q 126.33 514.88 122.72 488.76 Q 121.64 480.97 120.03 471.52 Q 114.60 439.68 99.60 411.48 C 89.76 392.96 77.99 375.15 66.61 357.67 C 56.17 341.63 47.18 324.56 43.80 305.89 Q 43.11 302.08 42.93 298.26 Q 42.76 294.70 42.43 290.67 C 42.05 285.91 43.03 281.31 42.96 276.64 Q 42.93 274.20 43.57 271.90 C 44.15 269.83 43.98 267.79 44.43 265.64 Q 46.84 254.07 50.54 241.91 C 52.44 235.68 53.89 229.10 54.73 222.49 Q 55.07 219.73 55.49 217.03 Q 55.90 214.33 55.96 211.68 Q 56.28 199.25 55.86 188.89 Q 55.68 184.36 54.40 177.79 C 53.00 170.55 49.75 163.66 43.68 159.79 Q 38.40 156.43 31.29 152.93 Q 14.62 144.73 7.15 129.45 Q 4.87 124.79 4.68 119.39 C 4.57 116.29 2.38 113.61 1.44 110.72 Q -0.01 106.27 1.04 101.99 A 2.55 2.55 0.0 0 1 2.72 100.18 Q 6.19 99.05 9.38 98.09 C 18.21 95.43 24.25 89.15 25.90 80.24 C 27.55 71.34 33.58 65.60 41.31 61.22 Q 54.55 53.73 69.90 50.11 Q 70.69 49.92 71.47 49.97 Q 72.00 50.00 72.45 49.72 Q 73.81 48.87 75.28 49.03 Q 75.86 49.09 75.96 48.51 Q 77.06 42.07 76.99 36.21 C 76.94 32.05 78.09 28.26 78.02 24.13 C 77.98 21.65 78.77 19.35 79.03 16.81 Q 79.35 13.61 80.72 9.90 C 82.60 4.77 87.00 4.67 90.09 8.81 C 91.58 10.81 93.28 12.67 94.60 14.75 Q 104.57 30.41 114.28 47.33 Q 114.83 48.28 115.58 47.47 Q 127.68 34.51 141.56 20.97 Q 150.42 12.32 159.28 5.14 C 163.23 1.93 169.58 -1.62 173.80 2.58 Q 175.56 4.33 177.22 9.82 Q 179.20 16.42 179.76 23.16 Q 180.05 26.81 180.46 29.95 Q 180.91 33.41 180.97 36.59 C 181.25 50.06 181.90 62.79 180.99 76.80 Q 180.96 77.31 181.28 77.71 C 192.04 91.17 200.47 104.07 201.82 120.56 C 202.79 132.29 200.73 142.11 197.35 153.26 Q 193.39 166.30 194.95 177.87 Q 197.47 196.63 213.57 205.21 Q 218.92 208.06 223.91 211.13 Q 232.71 216.54 238.37 224.45 Q 243.03 230.95 247.53 236.49 C 253.74 244.12 263.53 250.41 272.25 255.04 C 292.28 265.68 308.09 274.11 325.22 286.14 C 360.05 310.59 387.55 345.87 405.31 384.89 C 420.28 417.79 429.30 452.88 435.43 489.31 Q 435.85 491.80 436.06 494.38 C 436.24 496.50 437.03 498.43 436.97 500.56 C 436.88 503.53 438.02 506.07 437.98 508.94 C 437.91 513.45 438.96 517.81 438.98 522.33 Q 439.05 533.46 438.96 544.83 Q 438.94 547.90 438.40 551.10 C 437.89 554.10 438.10 557.01 437.74 560.07 Q 435.73 577.02 430.94 594.74 Q 428.04 605.47 433.93 612.42 Q 438.91 618.29 446.31 619.68 Q 460.89 622.42 473.45 614.69 C 493.89 602.11 506.11 577.77 511.26 555.03 Q 512.45 549.77 513.49 544.30 Q 513.95 541.90 513.99 539.62 C 514.03 537.41 514.93 535.61 514.98 533.43 C 515.05 530.46 514.89 527.56 515.28 524.57 C 516.31 516.69 515.22 509.16 515.00 501.33 Q 514.92 498.52 514.51 495.74 Q 514.11 493.00 513.70 489.99 Q 512.16 478.63 508.81 466.72 Q 502.40 443.94 488.41 426.12 Q 483.12 419.38 481.75 415.92 C 477.75 405.81 480.05 390.62 492.10 387.37 C 495.91 386.34 501.35 386.72 505.25 388.34 C 514.55 392.22 521.87 399.44 527.92 407.73 Q 539.57 423.69 547.49 443.36 Q 557.95 469.34 561.91 497.01 Q 562.70 502.56 563.37 507.86 Q 563.97 512.62 564.16 518.34 Q 564.34 523.79 564.61 529.22 C 565.00 537.00 564.45 545.04 563.87 553.49 Q 562.80 568.92 558.54 584.99 Q 552.42 608.06 540.93 625.31 C 532.37 638.17 522.46 647.92 509.39 655.85 Q 489.03 668.21 462.58 672.15 Q 456.96 672.99 453.18 673.00 C 449.10 673.00 444.88 674.10 440.92 673.65 C 436.61 673.17 432.28 673.13 428.05 672.50 C 419.32 671.19 412.63 668.22 404.95 665.29 Q 392.11 660.40 379.69 666.37 Q 368.56 671.72 355.75 672.93 Q 349.23 673.54 342.72 674.00 Z" style="fill: inherit;"/>
  </g>
</svg>