<svg xmlns="http://www.w3.org/2000/svg" xmlns:xlink="http://www.w3.org/1999/xlink" preserveAspectRatio="xMidYMid meet" version="1.0" viewBox="138.8 0.5 258.7 483.5" zoomAndPan="magnify" style="fill: rgb(239, 165, 182);" original_string_length="4274">
  <g data-name="Layer 5" id="__id235_sxs3yg52tb">
    <path d="M197.62,115.16c.89-.74.27-1.75.53-2.6,0-.13-.23-.36-.39-.59.63-2,.22-2.67-2.83-12-1.46-4.48-3.08-4.92-4.72-17.31-1.23-9.33.46-14.38-.67-15.3-1.47,1.9.27,2.85-2.84,11.52-.38,1-.09,0-1.53,6.06-1.78,7.52-4.61,13.43-7.08,19.85-1.6,4.15-6.49,12.16-10.25,13.44-4.94,1.69-.42-7.57-7.52-16.46-.82-1-1.45-2.22-2.29-3.23-6.92-8.3-4.68-4.75-8.57-11-3.79-6.06-5.55-8.28-8.13-21-1.67-8.26-.08-7.62-1-9.53-.73-1.52,1.78-3,7.34-9,1.76-1.92,4.3-1.87,7.9-5,2.77-2.42,8.52-6,13-9.11,7.74-5.42,3.45-2.73,7.63-5.25,11.93-7.19,12.51-6,15.47-8.61a89.26,89.26,0,0,1,9-4.75c5.41-2.35,5.26,1,11.93-.29C222.4,13.08,241,.5,264.56,8.76a56.7,56.7,0,0,1,16.31,9c2.82,2.33,7.25,5.39,9.72,7.83a26.83,26.83,0,0,0,11.83,6.67c1.67.37,1.9,0,3.78,1.45a75.7,75.7,0,0,1,8.42,8c1.83,2.34,4.24,3.83,5.31,5.08,19.72,23.24,26,31.31,26.89,32.41,4.94,5.88,2.36.66,7.87,11.92.89,1.82-.09,2.45,0,3.63.43,4.55-9,16.77-9,16.78-2.18,3.52-9.19,10-15.95,13.26-2.44,1.16-6.33,2.84-8.62,4a9.22,9.22,0,0,0-1.78,1.4c-5.06,3.61-4.06,7.41-5.58,8.61a1.44,1.44,0,0,0-.32.88c-.18,1.26-1.75,2.7-3.16,1.72a13.73,13.73,0,0,1-4.4-6.63c-2.72-11.11-4-6.72-5.57-36.57,0-.84-.23-1.68-.25-2.52-.19-6.11,0-6.5-.3-8.82-1,.32-1.07,1.08-1.87,3.61-3.32,10.41-3,9.77-3.85,11.12-2.36,3.92-2.12,5.45-3.05,7.11-.08.14-.2.32-.17.45.25.94-.41,1.67-.53,2.49a11.61,11.61,0,0,1-.95,2.25c-.19.56-.31,1.14-.5,1.69-.47,1.3-1.2,3-1.27,3.34-.25,1.29-.9,4.82-.9,4.83-.12,7.33.15,7.57-.66,9-1.59,2.82,0,4.91-.34,5.46s-.16,1.23-.05,1.86a30,30,0,0,0,2.54,8c11.77,23.4,15.44,21,21,41.15.31,1.14,2.26,8.36,2.34,9.82.1,1.66.8,3.21,1.49,7.31a11.66,11.66,0,0,0,2.06,5.22c1.07,1.44,1.88,3.08,2.85,4.61,11.59,18.23,14.78,20.53,19.68,30.74,3.49,7.26,7.22,16.59,8.45,18.81,3,5.42,4.23,13.88,4.24,13.89,2.26,10.76,2.21,5,3.67,16.83,1.12,9.17,2.83,7.75,2.67,13.41-.26,8.86-.35,11.56,2.79,14.4a32.82,32.82,0,0,0,6.68,4.94,14.46,14.46,0,0,1,6.79,7c3.68,8.46,1.07,9.15,3.2,14.88,2.42,6.47,6.86,8.48,8.47,20.25,1.83,13.43-11.7,40.28-14.63,47.48-5.58,13.74-5.72,13.38-8.67,18.53-1.56,2.71-.66,2.51-2.37,7-2.2,5.8-2.35,7.32-1,13.62a2.18,2.18,0,0,0,1.89,1.79c3.7.67,16.4,3.81,28.51,2.52a9.1,9.1,0,0,1,4.5.62c4.32,1.76,4.8,1.93,4.05,3.6-4.25,9.39-21.75,7.13-34.51,8.84-2.5.34-3.36-.38-3.89,1-2.3,6-8.15,6.18-36.51,5-1.78-.08-.86,2-4.47,2.06-14.3.29-18.61.6-37.44.49-2.06,0-1.91-.27-8.3-.62-1.88-.1-3.78-.17-5.66-.3a5.45,5.45,0,0,1-5-5.42c0-.48-.07-.95-.12-1.54-3.12-.24,5.6,0-35.77-.23-25.1-.16-24.17-.55-24.57.75-1.64,5.36-7.44,3.59-17.28,3.55-30.87-.12-25.39-.06-39.06-1.47-4.67-.49-3-3.32-4.48-5.07-.93-1.06,1.27-2.4,1.31-3.77.08-2.62,1.73-3.94,5.51-9.34,2.08-3,4.95-7.46,6.28-9.16,2.82-3.63,5.1-1.53,6.39-4.86.78-2,4.84-6.88,5.21-21.11.2-7.84.26-5.77,1.4-10.82a164.43,164.43,0,0,0,1.28-23.95c-.05-3.62-.76-12.64.18-16,.78-2.78,1.23-13.6,1.18-15.21-.33-10.38-.08-7.41-.18-10.59,0-1.43-.51-3.58-.47-3.94a44.5,44.5,0,0,0-.16-6c-.08-2.85,0-5.71-.18-8.55-.33-5.51-1.59-11.71-.89-16.92,1.87-13.92-1.68-10.44,2.72-23.52.84-2.49,2.24-3.46,1.77-5.6-.43-2-.36-4.65-1.66-8.82a68.82,68.82,0,0,1-3.91-26.82s-.61-5.58,1-29.27c.2-2.85,2.56-14.75,2.87-15.62,4.34-12.18,3.2-8.92,5.32-14,2.5-5.94,2.12-5.16,2.22-5.34,10.53-18.08,11.85-18.4,12.21-22a45.21,45.21,0,0,1,1.25-4.87c.42-1.9,2.3-2.6,5.48-13.83a29.73,29.73,0,0,0,1.21-4.27c.22-1.83.43-3.67.81-5.47a16.76,16.76,0,0,0-.14-6.5c-.13-4.39.53-6.11,0-8.29a3.59,3.59,0,0,1,.06-1.84c.2-.64-.53-1.26.06-1.85Zm6.71,297.42a3.17,3.17,0,0,0-.16.66c-.3,8.73-.68,8.06-.91,10.18-1.59,14.71-.12,15.9-.73,18.13a6.11,6.11,0,0,0,.76,4.52c.42.87.64.93,1.63.76,4.07-.68,4.15,0,6.63-1,6.58-2.53,7.79-2.95,10.41-3.42,1.81-.33,1.39-1.68,2.66-2.56,1.94-1.34,0-2.7.64-6.13.29-1.62-.49-2.29-5.76-6.88-3.38-2.94-1.92-.72-6.25-4.22-1.7-1.37-3.57-2.56-4.93-4.39C203.92,412.31,205.18,412.38,204.33,412.58Zm65.59,37.09c.54-.58.42.21,1.46-4.65.15-.69-.27-.89-2.85-2.49-.33-.2-.67-.36-1.19-.63C267.31,444.92,268.55,447.23,269.92,449.67Z" style="fill: inherit;"/>
  </g>
</svg>