<svg width="24" height="16" viewBox="0 0 24 16" fill="none" xmlns="http://www.w3.org/2000/svg">
<g clip-path="url(#clip0_108_1817)">
<path d="M24 0H0V16H24V0Z" fill="#21468B"/>
<path d="M24 0H0V10.6667H24V0Z" fill="white"/>
<path d="M24 0H0V5.33333H24V0Z" fill="#AE1C28"/>
<g clip-path="url(#clip1_108_1817)">
<path d="M0 0V16H24V0H0Z" fill="#012169"/>
<path d="M0 0L24 16L0 0ZM24 0L0 16L24 0Z" fill="black"/>
<path d="M24 0L0 16M0 0L24 16L0 0Z" stroke="white" stroke-width="2.4"/>
<path d="M0 0L24 16L0 0ZM24 0L0 16L24 0Z" fill="black"/>
<path d="M24 0L0 16M0 0L24 16L0 0Z" stroke="#C8102E" stroke-width="1.6"/>
<path d="M12 0V16V0ZM0 8H24H0Z" fill="black"/>
<path d="M0 8H24M12 0V16V0Z" stroke="white" stroke-width="4"/>
<path d="M12 0V16V0ZM0 8H24H0Z" fill="black"/>
<path d="M0 8H24M12 0V16V0Z" stroke="#C8102E" stroke-width="2.4"/>
</g>
</g>
<defs>
<clipPath id="clip0_108_1817">
<rect width="24" height="16" fill="white"/>
</clipPath>
<clipPath id="clip1_108_1817">
<rect width="24" height="16" fill="white"/>
</clipPath>
</defs>
</svg>
